<?xml version="1.0" ?>
<svg baseProfile="full" height="433px" version="1.1" viewBox="44.602283936278894 112.93222807367853 126.02677443312517 90.79138878432818" width="600px" xmlns="http://www.w3.org/2000/svg" xmlns:ev="http://www.w3.org/2001/xml-events" xmlns:xlink="http://www.w3.org/1999/xlink">
	<defs/>
	<path d="M 81.691248,195.96877 C 73.60239200000001,194.69403 67.250054,188.53884 65.92417900000001,180.69105000000002 C 65.561276,178.54305000000002 65.55821700000001,178.07025000000002 65.894799,176.15112000000002 C 66.630334,171.95727000000002 68.35031400000001,168.84279 71.85238000000001,165.36337000000003 C 81.75924,155.52057000000002 99.43167400000002,152.77046000000004 120.37849000000001,157.81197000000003 C 123.98118000000001,158.67906000000002 124.25646000000002,158.78623000000002 124.11472000000002,159.26647000000003 C 124.03052000000002,159.55161000000004 123.82345000000002,160.33990000000003 123.65448000000002,161.01823000000002 L 123.34724000000003,162.25155 L 121.95024000000002,162.08370000000002 C 121.18189000000002,161.99140000000003 119.63884000000002,161.80861000000002 118.52124000000002,161.67755000000002 C 117.40364000000002,161.54648000000003 114.88904000000002,161.43389000000002 112.93324000000003,161.42734000000002 C 101.92262000000002,161.39044 94.51336500000002,165.30946 90.49066600000003,173.29791 C 89.16401300000004,175.93243 88.58682600000003,178.44888 88.57982400000003,181.6289 C 88.57042400000003,185.92436999999998 89.57062400000002,189.07603999999998 92.15143200000003,192.88254999999998 C 93.04586700000003,194.20176999999998 93.74428100000003,195.30944 93.70346300000003,195.34402999999998 C 93.05032300000003,195.89753 84.16990900000003,196.35938999999996 81.69124800000003,195.96876999999998 L 81.691248,195.96877 M 103.33588,187.88403 C 100.90328000000001,185.28338 99.562464,181.08542 100.08623,177.70968 C 100.57442,174.56321 102.06115,171.62014 104.26659000000001,169.43443 C 107.49103000000001,166.23882 112.77325,164.72714 119.54910000000001,165.06085 C 122.67015,165.21455999999998 123.47414,165.47539999999998 123.47444000000002,166.33434 C 123.47470000000001,167.33148 124.88871000000002,169.91767 125.96313000000002,170.8864 C 127.57020000000001,172.33538000000001 128.94256000000001,172.93009 130.9874,173.06367 C 133.92566000000002,173.25562 137.32655,171.98649 139.70851000000002,169.80917 C 140.32045000000002,169.2498 140.85431000000003,168.8253 140.89485000000002,168.86585 C 140.93535000000003,168.90635 140.62845000000002,169.90072 140.21274000000003,171.07546 L 139.45691000000002,173.21134999999998 L 140.776,174.54702999999998 C 142.0951,175.88271999999998 142.0951,175.88271999999998 141.62890000000002,176.59680999999998 C 140.81282000000002,177.84684 136.12123000000003,182.37935 134.01524,183.95232 C 131.70071000000002,185.68105 128.75226,187.53372 126.93288000000001,188.40257 C 125.71097000000002,188.98609 125.68830000000001,188.98748 125.40888000000001,188.49617 C 124.58956,187.05549000000002 122.26387000000001,184.98961 120.45481000000001,184.09552 C 118.56073,183.15941999999998 118.52562,183.15292 115.35941000000001,183.15292 C 112.42449,183.15292 112.05470000000001,183.20752 110.70409000000001,183.84041 C 108.51177000000001,184.86772 107.10844,185.97602999999998 105.90158000000001,187.63331 C 105.30536000000001,188.45203999999998 104.74469,189.12192 104.65566000000001,189.12192 C 104.56666000000001,189.12192 103.97272000000001,188.56488 103.33588000000002,187.88405 L 103.33588,187.88403 M 55.148248,150.17567 L 55.148248,126.97744 L 60.985262000000006,125.14828 L 66.822277,123.31911 L 69.303762,125.51113 C 75.474987,130.96246 81.56008200000001,133.81146999999999 86.13624800000001,133.392 C 92.46991100000001,132.81144 96.61036000000001,128.92819 97.37771400000001,122.84885 L 97.66890500000001,120.5419 L 105.28790000000001,120.5419 C 109.47834,120.5419 113.88436000000002,120.66946 115.07906000000001,120.82536999999999 C 119.37981,121.38660999999999 123.14136000000002,122.10157 125.76024000000001,122.85552999999999 C 128.52203,123.65063999999998 133.126,125.37389999999999 133.12656,125.61272999999998 C 133.12674,125.68762999999998 131.66941,125.74889999999999 129.88806000000002,125.74889999999999 C 126.74764000000002,125.74889999999999 126.64683000000002,125.7658 126.56997000000003,126.30592999999999 C 126.50327000000003,126.77445999999999 126.64457000000003,126.8881 127.45897000000002,127.02116999999998 C 130.50271000000004,127.51849999999999 134.27261000000001,128.2575 136.04724000000002,128.70469999999997 C 144.2136,130.76258999999996 153.00600000000003,134.53186999999997 158.50694000000001,138.33310999999998 C 160.46207,139.68413999999999 160.45918,139.66521999999998 159.25931000000003,143.26385 C 158.03086000000002,146.94816 155.66323000000003,151.42122 153.36275000000003,154.40393 C 152.61537000000004,155.37296 152.61537000000004,155.37296 151.06231000000002,155.2092 L 149.50924000000003,155.04545000000002 L 148.26487000000003,156.95610000000002 C 147.58047000000002,158.00696000000002 146.58432000000002,159.29268000000002 146.05121000000003,159.81325 L 145.08192000000003,160.75973000000002 L 145.09192000000002,158.84541000000002 C 145.10882,155.61714 144.26733000000002,153.49136000000001 142.25189,151.67053 C 139.46576,149.15343000000001 135.77698,148.88793 131.66328000000001,150.90841 C 129.89332000000002,151.77774 127.16391000000002,154.10183 126.19078000000002,155.56823 L 125.78642000000002,156.17756 L 122.53483000000003,155.24785 C 114.08679000000002,152.83236 109.55331000000002,152.18697 100.99525000000003,152.18145 C 96.16350300000002,152.17845000000003 93.94685500000003,152.28515000000002 91.72425100000002,152.62818000000001 C 80.31006700000002,154.38981 71.66725300000002,157.85311000000002 64.11037600000003,163.69345 C 61.39489000000003,165.79211 58.20678100000003,169.16731000000001 56.65831800000003,171.58282000000003 C 56.03731800000003,172.55152000000004 55.44351300000003,173.35080000000002 55.33873800000003,173.35900000000004 C 55.23396300000003,173.36700000000005 55.14823800000003,162.93470000000005 55.14823800000003,150.17567000000003 L 55.148248,150.17567 M 84.358248,130.02614 C 80.671479,129.62749 76.364406,127.79933 73.567221,125.44582 C 71.914844,124.05553 69.372248,121.20634 69.372248,120.745 C 69.372248,120.63329 75.087248,120.5419 82.072248,120.5419 L 94.772248,120.5419 L 94.77074800000001,121.8754 C 94.76998600000002,122.60883 94.65259200000001,123.62922 94.50990800000001,124.14294 C 94.16780000000001,125.37465999999999 92.83498600000001,127.31318 91.71568700000002,128.20699 C 90.12176100000002,129.4799 86.83109900000002,130.29352 84.35827200000001,130.02614 L 84.358248,130.02614 M 81.9175394117909,196.00000000000006 L 88.57804104419098,196.00000000000006 M 75.71349146953094,194.0 L 92.89570685371535,194.0 M 72.64185587890273,191.99999999999997 L 91.57426086168431,191.99999999999997 M 70.49824938044674,189.99999999999997 L 90.44157492438697,189.99999999999997 M 68.9018265615486,187.99999999999994 L 89.583486017015,187.99999999999994 M 127.7264113880059,188.0000000000001 L 125.08619547342578,188.0000000000001 M 105.62954526478842,188.0 L 103.44504814906138,188.0 M 67.69935993491927,185.99999999999994 L 89.0089440785445,185.99999999999994 M 101.92038835325202,186.0 L 131.07002070593515,186.0 M 123.19984458423681,185.99999999999994 L 107.34698226902023,185.99999999999994 M 66.81228788504774,183.99999999999991 L 88.69119442902844,183.99999999999991 M 100.9290631587459,183.99999999999997 L 133.95128478795837,183.99999999999997 M 120.26131904332331,184.0 L 110.37124298085753,184.0 M 66.1953592401461,181.9999999999999 L 88.58157011770946,181.9999999999999 M 100.30316226012249,181.99999999999997 L 136.33045262345584,181.99999999999997 M 65.81140614687695,180.0 L 88.63800651753222,180.0 M 100.00085401114582,179.99999999999991 L 138.46420913517204,179.99999999999991 M 65.65336416953528,177.99999999999991 L 88.88801651868366,177.99999999999991 M 100.04600460310543,177.9999999999999 L 140.44014994664448,177.9999999999999 M 65.92181516953437,176.0 L 89.3824178193814,176.0 M 100.45453913070767,176.0 L 141.91160204130924,176.0 M 66.38739302150408,174.0 L 90.1537097324511,174.0 M 101.1623886096879,174.00000000000003 L 140.235764462521,174.00000000000003 M 67.0980192131033,171.99999999999997 L 91.19493995769582,171.99999999999997 M 102.21693963240428,172.00000000000003 L 127.41807193556161,172.00000000000003 M 136.34735008544735,172.00000000000003 L 139.88557190229835,172.00000000000003 M 56.38572804308768,172.0 L 55.27453117131247,172.0 M 68.11691576591006,169.99999999999994 L 92.51339399839237,169.99999999999994 M 103.72703970152033,170.00000000000009 L 125.18899968303374,170.00000000000009 M 139.49448380217208,170.00000000000006 L 140.57990588626632,170.00000000000006 M 57.795653041703375,169.99999999999997 L 55.240206683683056,169.99999999999997 M 69.490466314289,167.99999999999991 L 94.21152761513235,167.99999999999991 M 106.0147614810559,168.0 L 123.99875903550381,168.0 M 59.499761116934366,168.0 L 55.217208697664454,168.0 M 71.22773432233978,165.99999999999986 L 96.48518991994453,165.99999999999986 M 110.31776862167064,166.00000000000003 L 123.42016537250664,166.00000000000003 M 61.45575859782541,166.0 L 55.199784640306575,166.0 M 73.32646589358646,164.0 L 99.79058567058657,164.0 M 63.72157874036545,164.0 L 55.18602881312551,164.0 M 75.93169102444347,162.0 L 123.40990518178577,162.0 M 121.24973890352257,162.0 L 106.06999095633535,162.0 M 66.42909124482169,162.00000000000006 L 55.1750314230592,162.00000000000006 M 79.28476507044215,160.0 L 123.91505008569827,160.0 M 145.85995935814816,159.99999999999997 L 145.08588866772538,159.99999999999997 M 69.573129314195,160.00000000000006 L 55.16627986661631,160.00000000000006 M 83.92562803419715,158.0 L 121.155859706236,158.0 M 147.54061736474594,158.0 L 145.075394716798,158.0 M 73.34696846993592,158.00000000000003 L 55.15945748943077,158.00000000000003 M 110.68922478523729,156.00000000000006 L 92.01445220635534,156.00000000000006 M 148.88755974275776,155.99999999999997 L 144.8211546923117,155.99999999999997 M 125.9042513255543,156.00000000000003 L 125.16541740736365,156.00000000000003 M 78.12190033021714,156.00000000000003 L 55.154358207384625,156.00000000000003 M 153.66799757141652,154.00000000000006 L 144.09964010297023,154.00000000000006 M 127.5477425659064,154.0 L 117.86432595313418,154.0 M 84.75875836190282,154.0 L 55.15084468101265,154.0 M 155.0332625357137,152.00000000000003 L 142.60029867605448,152.00000000000003 M 129.9136239311306,151.99999999999997 L 55.14882574719297,151.99999999999997 M 55.148248,150.0 L 156.22198092175398,150.0 M 133.97272093486112,150.00000000000003 L 139.47366536541068,150.00000000000003 M 55.148248,148.0 L 157.2749391377,148.0 M 55.148248,146.0 L 158.2039044858888,146.0 M 55.148248,144.0 L 159.00262567960888,144.0 M 55.148248,142.00000000000003 L 159.67537011507295,142.00000000000003 M 55.148248,139.99999999999997 L 160.0722757363912,139.99999999999997 M 55.148248,137.99999999999997 L 158.01636894168686,137.99999999999997 M 55.148248,135.99999999999997 L 154.71772633448595,135.99999999999997 M 55.148248,134.0 L 150.8016164263861,134.0 M 55.148248,132.0 L 79.09283614410663,132.0 M 91.22774648141522,132.0 L 146.17990721019285,132.0 M 55.148248,130.0 L 75.27905580183116,130.0 M 94.03414532978609,130.00000000000003 L 140.58163431906823,130.00000000000003 M 84.13214115726292,130.0 L 86.66517250915739,130.0 M 55.148248,128.0 L 72.35309868664369,128.0 M 95.62753089044243,128.00000000000003 L 132.82584675065974,128.00000000000003 M 77.59462593502937,127.99999999999996 L 91.95848449311111,127.99999999999996 M 58.267346911063,126.0 L 69.8650669875523,126.0 M 96.60933754419501,126.00000000000004 L 126.67150849140918,126.00000000000004 M 74.26629391541283,125.99999999999996 L 93.60494137483406,125.99999999999996 M 64.64950730481037,124.0 L 67.59308124523956,124.0 M 97.18693093285668,124.00000000000009 L 129.26411688619595,124.00000000000009 M 72.0261723581324,124.00000000000003 L 94.54602326524655,124.00000000000003 M 97.48485870636556,122.0 L 122.22023806635443,122.0 M 70.2071027619792,121.99999999999999 L 94.76955954086539,121.99999999999999" fill="none" stroke="#000000" stroke-width="0.10493486630568291"/>
</svg>
