<?xml version="1.0" encoding="UTF-8" standalone="no"?>
<svg
   xmlns:dc="http://purl.org/dc/elements/1.1/"
   xmlns:cc="http://creativecommons.org/ns#"
   xmlns:rdf="http://www.w3.org/1999/02/22-rdf-syntax-ns#"
   xmlns:svg="http://www.w3.org/2000/svg"
   xmlns="http://www.w3.org/2000/svg"
   xmlns:sodipodi="http://sodipodi.sourceforge.net/DTD/sodipodi-0.dtd"
   xmlns:inkscape="http://www.inkscape.org/namespaces/inkscape"
   inkscape:version="1.0 (4035a4f, 2020-05-01)"
   sodipodi:docname="applelogo.svg"
   id="svg8"
   version="1.1"
   viewBox="0 0 210 297"
   height="297mm"
   width="210mm">
  <defs
     id="defs2" />
  <sodipodi:namedview
     inkscape:window-maximized="0"
     inkscape:window-y="23"
     inkscape:window-x="0"
     inkscape:window-height="943"
     inkscape:window-width="1252"
     showgrid="false"
     inkscape:document-rotation="0"
     inkscape:current-layer="layer1"
     inkscape:document-units="mm"
     inkscape:cy="543.04825"
     inkscape:cx="515.20237"
     inkscape:zoom="0.58616022"
     inkscape:pageshadow="2"
     inkscape:pageopacity="0.0"
     borderopacity="1.0"
     bordercolor="#666666"
     pagecolor="#ffffff"
     id="base" />
  <metadata
     id="metadata5">
    <rdf:RDF>
      <cc:Work
         rdf:about="">
        <dc:format>image/svg+xml</dc:format>
        <dc:type
           rdf:resource="http://purl.org/dc/dcmitype/StillImage" />
      </cc:Work>
    </rdf:RDF>
  </metadata>
  <g
     id="layer1"
     inkscape:groupmode="layer"
     inkscape:label="Layer 1">
    <path
       id="path24"
       d="m 75.650802,227.4614 c -7.490789,-1.3677 -14.686005,-7.78514 -24.395288,-21.75821 -5.225545,-7.52032 -8.863199,-14.72712 -12.564754,-24.89287 -4.912927,-13.49259 -6.917463,-28.62304 -5.432706,-41.00661 1.533173,-12.78741 6.64857,-23.55632 14.918041,-31.40541 6.327569,-6.0059 14.222861,-9.9053 22.783965,-11.25275 6.639748,-1.04505 11.714321,-0.34388 20.481468,2.82997 5.212448,1.88699 9.731612,3.40742 11.404602,3.83698 2.04457,0.52497 3.42533,0.54753 5.15738,0.0843 1.69155,-0.45242 6.40485,-2.0404 11.14474,-3.75481 7.94329,-2.87308 12.41556,-3.8404 17.81024,-3.85223 4.13979,-0.009 8.11174,0.53841 12.37549,1.70583 9.37248,2.5662 15.76683,6.82902 21.70508,14.46979 l 0.74854,0.96315 -1.86748,1.25708 c -9.85607,6.63454 -15.40671,15.19713 -16.89582,26.06402 -0.32251,2.35352 -0.32114,7.54102 0.003,10.25832 1.04167,8.7403 4.61778,16.05222 10.81343,22.10975 3.48474,3.40705 6.35746,5.50275 10.19816,7.43971 l 2.32141,1.17075 -0.5466,1.53688 c -4.09934,11.52623 -9.09609,20.37265 -17.49499,30.97377 -5.36384,6.77025 -10.07681,10.53548 -15.37916,12.2865 -5.11991,1.69078 -10.51673,1.10707 -18.69211,-2.02169 -6.06606,-2.32151 -8.79055,-3.06482 -13.08428,-3.56964 -4.90522,-0.57673 -10.77298,0.30738 -16.826867,2.53534 -1.3232,0.48697 -3.488437,1.28384 -4.811637,1.77081 -5.612169,2.06539 -10.468686,2.84298 -13.873561,2.2213 z M 104.79163,96.05453 c -0.20337,-0.33252 -0.26453,-4.286382 -0.0924,-5.970559 0.82805,-8.099955 4.76487,-16.331496 10.90799,-22.807683 4.75745,-5.015379 11.89427,-9.131718 18.98132,-10.947947 1.89802,-0.486416 5.54983,-1.026507 5.72741,-0.847066 0.0493,0.04982 0.0865,1.505782 0.0827,3.235463 -0.008,3.548507 -0.22579,5.399645 -1.00327,8.522471 -1.64246,6.597063 -5.48747,13.130434 -10.97294,18.644994 -5.50086,5.530039 -11.29938,8.816763 -17.55396,9.949957 -1.67357,0.30321 -5.93175,0.45763 -6.07685,0.22037 z"
       style="fill:#000000;stroke-width:0.144387" />
  </g>
</svg>
