<?xml version="1.0" encoding="UTF-8" standalone="no"?>
<svg
   xmlns:dc="http://purl.org/dc/elements/1.1/"
   xmlns:cc="http://creativecommons.org/ns#"
   xmlns:rdf="http://www.w3.org/1999/02/22-rdf-syntax-ns#"
   xmlns:svg="http://www.w3.org/2000/svg"
   xmlns="http://www.w3.org/2000/svg"
   xmlns:sodipodi="http://sodipodi.sourceforge.net/DTD/sodipodi-0.dtd"
   xmlns:inkscape="http://www.inkscape.org/namespaces/inkscape"
   sodipodi:docname="noviWildcatOnly.svg"
   inkscape:version="1.0 (4035a4f, 2020-05-01)"
   id="svg34"
   version="1.1"
   viewBox="0 0 210 297"
   height="297mm"
   width="210mm">
  <defs
     id="defs28" />
  <sodipodi:namedview
     inkscape:window-maximized="0"
     inkscape:window-y="23"
     inkscape:window-x="0"
     inkscape:window-height="943"
     inkscape:window-width="1252"
     showgrid="false"
     inkscape:document-rotation="0"
     inkscape:current-layer="layer1"
     inkscape:document-units="mm"
     inkscape:cy="434.67734"
     inkscape:cx="295.04018"
     inkscape:zoom="0.57851132"
     inkscape:pageshadow="2"
     inkscape:pageopacity="0.0"
     borderopacity="1.0"
     bordercolor="#666666"
     pagecolor="#ffffff"
     id="base" />
  <metadata
     id="metadata31">
    <rdf:RDF>
      <cc:Work
         rdf:about="">
        <dc:format>image/svg+xml</dc:format>
        <dc:type
           rdf:resource="http://purl.org/dc/dcmitype/StillImage" />
        <dc:title></dc:title>
      </cc:Work>
    </rdf:RDF>
  </metadata>
  <g
     id="layer1"
     inkscape:groupmode="layer"
     inkscape:label="Layer 1">
    <path
       id="path50"
       d="m 81.691248,195.96877 c -8.088856,-1.27474 -14.441194,-7.42993 -15.767069,-15.27772 -0.362903,-2.148 -0.365962,-2.6208 -0.02938,-4.53993 0.735535,-4.19385 2.455515,-7.30833 5.957581,-10.78775 9.90686,-9.8428 27.579294,-12.59291 48.52611,-7.5514 3.60269,0.86709 3.87797,0.97426 3.73623,1.4545 -0.0842,0.28514 -0.29127,1.07343 -0.46024,1.75176 l -0.30724,1.23332 -1.397,-0.16785 c -0.76835,-0.0923 -2.3114,-0.27509 -3.429,-0.40615 -1.1176,-0.13107 -3.6322,-0.24366 -5.588,-0.25021 -11.01062,-0.0369 -18.419875,3.88212 -22.442574,11.87057 -1.326653,2.63452 -1.90384,5.15097 -1.910842,8.33099 -0.0094,4.29547 0.9908,7.44714 3.571608,11.25365 0.894435,1.31922 1.592849,2.42689 1.552031,2.46148 -0.65314,0.5535 -9.533554,1.01536 -12.012215,0.62474 z m 21.644632,-8.08474 c -2.4326,-2.60065 -3.773416,-6.79861 -3.24965,-10.17435 0.48819,-3.14647 1.97492,-6.08954 4.18036,-8.27525 3.22444,-3.19561 8.50666,-4.70729 15.28251,-4.37358 3.12105,0.15371 3.92504,0.41455 3.92534,1.27349 2.6e-4,0.99714 1.41427,3.58333 2.48869,4.55206 1.60707,1.44898 2.97943,2.04369 5.02427,2.17727 2.93826,0.19195 6.33915,-1.07718 8.72111,-3.2545 0.61194,-0.55937 1.1458,-0.98387 1.18634,-0.94332 0.0405,0.0405 -0.2664,1.03487 -0.68211,2.20961 l -0.75583,2.13589 1.31909,1.33568 c 1.3191,1.33569 1.3191,1.33569 0.8529,2.04978 -0.81608,1.25003 -5.50767,5.78254 -7.61366,7.35551 -2.31453,1.72873 -5.26298,3.5814 -7.08236,4.45025 -1.22191,0.58352 -1.24458,0.58491 -1.524,0.0936 -0.81932,-1.44068 -3.14501,-3.50656 -4.95407,-4.40065 -1.89408,-0.9361 -1.92919,-0.9426 -5.0954,-0.9426 -2.93492,0 -3.30471,0.0546 -4.65532,0.68749 -2.19232,1.02731 -3.59565,2.13562 -4.80251,3.7929 -0.59622,0.81873 -1.15689,1.48861 -1.24592,1.48861 -0.089,0 -0.68294,-0.55704 -1.31978,-1.23787 z M 55.148248,150.17567 v -23.19823 l 5.837014,-1.82916 5.837015,-1.82917 2.481485,2.19202 c 6.171225,5.45133 12.25632,8.30034 16.832486,7.88087 6.333663,-0.58056 10.474112,-4.46381 11.241466,-10.54315 l 0.291191,-2.30695 h 7.618995 c 4.19044,0 8.59646,0.12756 9.79116,0.28347 4.30075,0.56124 8.0623,1.2762 10.68118,2.03016 2.76179,0.79511 7.36576,2.51837 7.36632,2.7572 1.8e-4,0.0749 -1.45715,0.13617 -3.2385,0.13617 -3.14042,0 -3.24123,0.0169 -3.31809,0.55703 -0.0667,0.46853 0.0746,0.58217 0.889,0.71524 3.04374,0.49733 6.81364,1.23633 8.58827,1.68353 8.16636,2.05789 16.95876,5.82717 22.4597,9.62841 1.95513,1.35103 1.95224,1.33211 0.75237,4.93074 -1.22845,3.68431 -3.59608,8.15737 -5.89656,11.14008 -0.74738,0.96903 -0.74738,0.96903 -2.30044,0.80527 l -1.55307,-0.16375 -1.24437,1.91065 c -0.6844,1.05086 -1.68055,2.33658 -2.21366,2.85715 l -0.96929,0.94648 0.01,-1.91432 c 0.0169,-3.22827 -0.82459,-5.35405 -2.84003,-7.17488 -2.78613,-2.5171 -6.47491,-2.7826 -10.58861,-0.76212 -1.76996,0.86933 -4.49937,3.19342 -5.4725,4.65982 l -0.40436,0.60933 -3.25159,-0.92971 c -8.44804,-2.41549 -12.98152,-3.06088 -21.53958,-3.0664 -4.831747,-0.003 -7.048395,0.1037 -9.270999,0.44673 -11.414184,1.76163 -20.056998,5.22493 -27.613875,11.06527 -2.715486,2.09866 -5.903595,5.47386 -7.452058,7.88937 -0.621,0.9687 -1.214805,1.76798 -1.31958,1.77618 -0.104775,0.008 -0.1905,-10.4243 -0.1905,-23.18333 z m 29.21,-20.14953 c -3.686769,-0.39865 -7.993842,-2.22681 -10.791027,-4.58032 -1.652377,-1.39029 -4.194973,-4.23948 -4.194973,-4.70082 0,-0.11171 5.715,-0.2031 12.7,-0.2031 h 12.7 l -0.0015,1.3335 c -7.62e-4,0.73343 -0.118156,1.75382 -0.26084,2.26754 -0.342108,1.23172 -1.674922,3.17024 -2.794221,4.06405 -1.593926,1.27291 -4.884588,2.08653 -7.357415,1.81915 z"
       style="fill:#000000;stroke-width:0.254" />
  </g>
</svg>
