<?xml version="1.0" encoding="UTF-8"?>
<svg width="210mm" height="297mm" version="1.1" viewBox="0 0 210 297" xmlns="http://www.w3.org/2000/svg" xmlns:cc="http://creativecommons.org/ns#" xmlns:dc="http://purl.org/dc/elements/1.1/" xmlns:rdf="http://www.w3.org/1999/02/22-rdf-syntax-ns#">
 <metadata>
  <rdf:RDF>
   <cc:Work rdf:about="">
    <dc:format>image/svg+xml</dc:format>
    <dc:type rdf:resource="http://purl.org/dc/dcmitype/StillImage"/>
    <dc:title/>
   </cc:Work>
  </rdf:RDF>
 </metadata>
 <g stroke-width=".76416">
  <path d="m45.695 201.97c-2.4238-0.88081-5.6576-2.4094-7.1863-3.3968-1.5287-0.98745-4.0335-3.0786-5.5662-4.6469-1.5327-1.5684-3.7136-4.7898-4.8463-7.1588-1.1525-2.4104-2.2077-6.136-2.396-8.4597-0.24951-3.0787 0.11467-5.4025 1.4084-8.9869 1.3462-3.7298 2.8337-5.9359 6.51-9.6548 3.2083-3.2455 6.7871-5.8605 10.954-8.0043 3.4038-1.7512 9.4399-4.0657 13.413-5.1434 6.0428-1.6389 8.9548-1.9649 17.801-1.993 6.9119-0.022 13.063 0.43109 17.753 1.3076 3.9472 0.73769 8.4514 1.6844 10.01 2.1039 1.6318 0.43931 2.8329 1.2388 2.8329 1.8858 0 0.94528-1.4059 1.0484-8.8764 0.65129-5.4499-0.28973-10.626-0.13494-13.409 0.40098-2.4929 0.48008-6.8629 1.7832-9.711 2.8959-3.8841 1.5174-6.2473 3.1094-9.4554 6.3693-2.3524 2.3904-5.0265 5.9115-5.9425 7.8247-0.916 1.9132-2.0617 5.1554-2.5459 7.2049-0.50783 2.1494-0.71604 6.4228-0.49198 10.098 0.23104 3.7895 0.92123 7.4479 1.7032 9.028 0.72311 1.4612 2.1164 3.7532 3.0962 5.0933 1.6219 2.2183 1.6647 2.483 0.47739 2.9546-0.71724 0.28492-3.5137 0.67779-6.2144 0.87303-3.7195 0.26889-5.9791-0.0334-9.3172-1.2465zm32.914-13.431c-0.88057-1.3247-1.9607-3.3878-2.4003-4.5846-0.43962-1.1968-0.79185-3.9796-0.78272-6.184 0.0092-2.2044 0.63565-5.4023 1.3923-7.1065 0.75663-1.7042 2.6866-4.2763 4.2888-5.7158s4.317-3.2526 6.0329-4.0293c1.7159-0.77667 5.017-1.6403 7.3357-1.9191 2.3187-0.27885 5.7415-0.2729 7.6062 0.0132 2.8195 0.43264 3.5454 0.90331 4.3113 2.7954 0.50655 1.2513 2.2325 3.4875 3.8354 4.9693 1.6029 1.4818 3.7931 2.9199 4.867 3.1957 1.0739 0.27581 3.4683 0.32665 5.3209 0.11299 1.8526-0.21368 4.7219-1.3051 6.3763-2.4253l3.0079-2.0368v2.6708c0 1.469 0.33995 2.8858 0.75544 3.1486 0.41549 0.26276 0.75544 1.1108 0.75544 1.8845 0 0.7737-2.3012 3.6229-5.1137 6.3316-2.8125 2.7087-7.441 6.3696-10.286 8.1354l-5.1718 3.2106-2.1092-2.458c-1.16-1.3519-3.6227-3.2315-5.4725-4.1768-2.2372-1.1433-4.7269-1.7163-7.4355-1.7112-2.675 4e-3 -5.3787 0.63008-7.8802 1.822-2.0944 0.99795-4.6687 2.8611-5.7206 4.1402l-1.9125 2.3258-1.601-2.4086zm-67.403-55.844c-0.0065-23.881 0.20896-31.203 0.93596-31.819 0.51936-0.44054 3.8587-1.6406 7.4207-2.6667l6.4764-1.8658 4.2983 4.0939c2.4714 2.3538 6.7643 5.3075 10.1 6.9492 4.5715 2.2499 6.9738 2.9324 11.329 3.2184 4.1031 0.26944 6.4092 0.0183 8.9493-0.97425 1.8821-0.73547 4.4432-2.2166 5.6915-3.2914 1.2483-1.0748 2.9256-3.2699 3.7273-4.878 0.80176-1.6081 1.6733-4.3031 1.9367-5.9889 0.46692-2.9879 0.56892-3.076 4.0474-3.4975 1.9626-0.23784 7.6202-0.1303 12.572 0.239 4.9521 0.3693 11.553 1.1925 14.67 1.8294 3.1162 0.63685 6.9848 1.6363 8.5969 2.2211l2.9311 1.0632-4.2531 1.044c-2.3392 0.57422-4.2531 1.291-4.2531 1.5928 0 0.30183 3.6544 1.2907 8.1209 2.1975 4.4665 0.90679 11.86 2.6892 16.431 3.961 4.9346 1.3731 11.708 4.0448 16.676 6.5777 4.6012 2.346 9.1199 4.9843 10.042 5.8629 1.1854 1.13 1.5304 2.0887 1.179 3.2761-0.27322 0.92319-1.8496 4.4613-3.5032 7.8625-1.6535 3.4012-3.8696 7.3524-4.9247 8.7805-1.6522 2.2364-2.2555 2.5406-4.35 2.1928-2.1688-0.36014-2.5978-0.10635-3.9685 2.3478l-1.5368 2.7516-0.52545-3.1824c-0.289-1.7503-1.1679-4.0181-1.9531-5.0396-0.78522-1.0215-2.5931-2.4231-4.0176-3.1147-1.4244-0.69166-4.4082-1.2573-6.6306-1.2569-2.8823 4.3e-4 -5.3579 0.63824-8.6354 2.2248-2.5271 1.2233-5.4377 3.3264-6.468 4.6735-1.7263 2.257-2.0475 2.3814-4.0928 1.5836-1.2207-0.47615-5.619-1.7358-9.7739-2.7991-5.8471-1.4964-10.286-2.0278-19.641-2.351-9.3376-0.32267-13.718-0.12642-19.258 0.86271-3.9439 0.70422-10.063 2.1831-13.598 3.2864-3.5349 1.1033-8.9375 3.2252-12.006 4.7154-3.0682 1.4902-7.8275 4.4155-10.576 6.5007-2.7486 2.0852-6.6085 5.6012-8.5775 7.8135l-3.58 4.0223zm67.603 24.448c0.83098-0.36539 2.5307-0.68346 3.7772-0.70683 1.7308-0.0324 1.9985 0.13458 1.1332 0.70683-0.62324 0.41213-2.323 0.7302-3.7772 0.70682-2.1604-0.0347-2.3677-0.164-1.1332-0.70682zm30.595 0.0213c0-0.50576 3.833-0.79426 10.552-0.79426h10.552l0.25163-9.0827 0.25163-9.0827-0.0388 9.6624-0.0388 9.6624-10.765 0.21448c-7.0008 0.13948-10.765-0.0633-10.765-0.57974zm34.01-2.3094c-0.83942-1.6837-1.5262-3.249-1.5262-3.4785 0-0.22952 0.29077-0.41729 0.64615-0.41729 0.35539 0 0.96292 1.1305 1.3501 2.5122l0.70393 2.5122 54.713 0.40578v-31.712h-12.087v-75.754h12.087v-29.374h-69.452l-0.42566 17.988-4.4034-8.994-4.4033-8.994h-58.049v29.374h13.598v18.938c0 12.11-0.27237 18.938-0.75544 18.938-0.48264 0-0.75544-6.6993-0.75544-18.552v-18.552h-13.598v-31.693h60.14l3.2452 7.07c2.3408 5.0997 3.4313 6.7692 3.9131 5.9907 0.36733-0.59362 0.67309-3.7751 0.67945-7.07l0.0115-5.9907h71.766v31.628l-11.709 0.45153-0.19625 36.524-0.19626 36.524 5.4843 0.0915c3.0164 0.0503 5.7393 0.0503 6.0509 0 0.31163-0.0503 0.56658 7.735 0.56658 17.301v17.392h-55.872l-1.5262-3.0612zm-96.025-52.514c-2.323-0.76051-5.7225-2.4441-7.5544-3.7413-1.8319-1.2972-4.1548-3.2651-5.1621-4.3731l-1.8314-2.0146h32.16l-0.52571 2.8987c-0.28914 1.5943-1.0919 3.5566-1.7838 4.3607-0.69195 0.80404-2.6179 2.1008-4.2798 2.8818-1.662 0.78091-3.8716 1.4088-4.9103 1.3952-1.0387-0.0136-3.7893-0.64683-6.1123-1.4074zm70.447-9.262c-0.55572-0.36043-0.88956-1.4856-0.74187-2.5004 0.24992-1.7173 0.33027-1.6711 1.16 0.66717 0.49028 1.3817 0.82412 2.5069 0.74185 2.5004-0.0822-0.0063-0.60423-0.30674-1.1599-0.66717zm21.202-35.275c-2.1722-4.4692-3.9494-8.2955-3.9494-8.503 0-0.20746 1.8697-0.3772 4.1549-0.3772h4.1549v8.503c0 4.6766-0.0924 8.5029-0.20548 8.5029-0.11302 0-1.9827-3.6566-4.1549-8.1257zm3.2149-2.8838c-0.12532-2.2351-0.25878-4.3248-0.29659-4.6437-0.0378-0.31886-1.0319-0.57975-2.2092-0.57975s-2.3513 0.21578-2.609 0.47951c-0.25773 0.26373 0.54693 2.538 1.7881 5.054 1.2412 2.516 2.5487 4.3898 2.9056 4.1641 0.35688-0.22569 0.54633-2.2391 0.421-4.4743z" fill="#030303"/>
  <path d="m48.072 202.99c0.54533-0.22329 1.1969-0.19584 1.4479 0.061 0.25102 0.25686-0.19516 0.43956-0.99151 0.40599-0.88004-0.0371-1.059-0.22026-0.45641-0.46701zm9.7735 0.0161c0.51936-0.21444 1.3692-0.21444 1.8886 0 0.51936 0.21443 0.09443 0.38989-0.9443 0.38989s-1.4637-0.17546-0.9443-0.38989zm-15.675-1.807c-0.62324-0.41213-0.79321-0.74932-0.37772-0.74932 0.41549 0 1.2654 0.33719 1.8886 0.74932 0.62324 0.41213 0.79321 0.74932 0.37772 0.74932-0.41549 0-1.2654-0.33719-1.8886-0.74932zm18.283-2.1257c-0.80344-1.1692-2.0164-3.239-2.6955-4.5996-0.67907-1.3606-1.2188-3.0999-1.1993-3.865 0.01943-0.76512 0.65539 0.23128 1.4132 2.2142 0.75785 1.9829 2.1249 4.6788 3.0379 5.9907 0.91297 1.312 1.49 2.3854 1.2822 2.3854-0.20774 0-1.0351-0.95658-1.8385-2.1257zm-23.627-0.83629c-1.8553-1.204-4.3543-3.378-5.5532-4.8312-1.1989-1.4532-2.9736-4.3814-3.9438-6.5072-0.97019-2.1257-1.7514-4.3868-1.736-5.0245 0.01537-0.63772 0.64801 0.46292 1.4059 2.4459 0.75785 1.983 2.1726 4.7657 3.1439 6.184 0.97131 1.4182 2.8 3.5497 4.0637 4.7367 1.2637 1.1869 3.2325 2.6742 4.3751 3.3051 1.1426 0.63087 2.0774 1.312 2.0774 1.5137s-0.10342 0.36665-0.22982 0.36665c-0.1264 0-1.7478-0.98507-3.6032-2.189zm41.717-8.4723c-0.91471-1.3144-2.1639-3.6164-2.776-5.1154-0.6121-1.499-1.1129-4.4871-1.1129-6.6401 0-2.153 0.52614-5.2031 1.1692-6.778 0.64306-1.5748 1.9179-3.6979 2.8329-4.7179 0.91502-1.02 2.9895-2.851 4.6099-4.0688 1.6204-1.2178 3.3017-2.2142 3.7362-2.2142s-0.72134 0.99452-2.5685 2.2101c-1.8472 1.2155-4.1072 3.0465-5.0222 4.0688-0.91502 1.0223-2.1898 3.1472-2.8329 4.7221-0.64306 1.5748-1.1692 4.5911-1.1692 6.7028 0 2.1117 0.35969 4.8187 0.79932 6.0156s1.5198 3.2599 2.4003 4.5846l1.601 2.4085 1.836-2.2327c1.0098-1.228 2.5643-2.5961 3.4543-3.0402 1.5019-0.74939 1.4938-0.70447-0.1128 0.62467-0.95208 0.78767-2.5074 2.4284-3.4563 3.6461l-1.7253 2.214zm28.595-1.4914c-1.8697-1.9384-2.6712-3.1356-1.7812-2.6602 0.89003 0.47532 2.4587 1.8863 3.486 3.1355l1.8677 2.2713 5.1871-3.2201c2.8529-1.771 7.4882-5.4363 10.301-8.1449 2.8125-2.7087 5.1405-5.4914 5.1733-6.184 0.0433-0.914 0.171-0.97302 0.46593-0.21533 0.23202 0.5961-1.3326 2.8575-3.648 5.2725-2.2298 2.3258-5.584 5.3705-7.4537 6.7661-1.8697 1.3956-4.9292 3.4298-6.7989 4.5206l-3.3995 1.9831zm-51.31-0.66607c0.03624-0.90051 0.21526-1.0837 0.45641-0.46703 0.21822 0.55801 0.19138 1.2247-0.05964 1.4816-0.25102 0.25686-0.42957-0.19971-0.39677-1.0146zm46.51-3.1724c-0.2856-0.29224-2.9768-0.78502-5.9805-1.0951l-5.4613-0.56373 5.4631 0.15329c3.0905 0.0867 5.8628 0.5623 6.3834 1.0951 0.5062 0.51798 0.73908 0.94178 0.51748 0.94178s-0.63658-0.2391-0.92218-0.53134zm-77.395-7.5851c0.0154-1.2754 0.1847-1.7036 0.37624-0.95154 0.19154 0.75211 0.17894 1.7956-0.02799 2.319-0.20693 0.52335-0.36365-0.092-0.34825-1.3674zm30.885 0.70858c0.03624-0.9005 0.21526-1.0837 0.45641-0.46702 0.21822 0.558 0.19138 1.2247-0.05964 1.4816-0.25102 0.25686-0.42957-0.19969-0.39677-1.0146zm1.4628-5.8807c-0.0064-0.71892 0.32838-1.5221 0.74387-1.7849 0.41549-0.26275 0.75023-0.19633 0.74387 0.14763-0.0064 0.34395-0.3411 1.1471-0.74387 1.7849-0.63109 0.99925-0.7339 0.97884-0.74387-0.14762zm72.857-0.6768c-0.27386-0.45343-0.33593-0.99021-0.13791-1.1928 0.19802-0.20263 0.56134 0.16836 0.80738 0.82441 0.24603 0.65607 0.30809 1.1928 0.1379 1.1928-0.17018 0-0.5335-0.37099-0.80737-0.82442zm-103.81-1.3397c-0.01517-0.55255 0.51116-2.0707 1.1696-3.3736 0.65847-1.303 2.5921-3.9174 4.2969-5.8099 1.7048-1.8925 4.1406-4.1582 5.4128-5.035 1.2722-0.87676 0.21123 0.37066-2.3578 2.772-2.8469 2.6611-5.4175 5.9448-6.5825 8.4086-1.0513 2.2234-1.9239 3.5904-1.9391 3.0379zm86.438-0.77638c-1.2642-0.81388-3.1954-2.5704-4.2916-3.9034-1.0962-1.333-2.2026-3.0992-2.4587-3.9249-0.2561-0.82564-1.2144-1.6498-2.1296-1.8314l-1.664-0.33021 1.6844-0.10526c1.2444-0.0778 2.0744 0.67709 3.1775 2.8895 0.8212 1.6471 2.554 3.9082 3.8508 5.0247 1.2967 1.1165 3.2016 2.2467 4.233 2.5116s3.3534 0.31114 5.16 0.10278c1.9353-0.22321 4.7098-1.363 6.754-2.7747 2.4872-1.7176 3.4693-2.075 3.4693-1.2625 0 0.62334-0.25496 1.0485-0.56657 0.94489-0.31163-0.10361-1.9066 0.66165-3.5443 1.7006-1.9664 1.2475-4.4038 1.9823-7.1766 2.1636-3.172 0.20735-4.7611-0.0875-6.4974-1.2053zm-53.981-0.50692c0-0.28902 1.0214-2.0445 2.2697-3.9011 1.2484-1.8566 3.713-4.5691 5.4769-6.0278 1.7639-1.4587 4.0012-3.0742 4.9716-3.59 0.97044-0.51579 1.9619-0.73569 2.2034-0.48867 0.24141 0.24701 0.1006 0.44912-0.3129 0.44912-0.4135 0-2.3873 1.1084-4.3861 2.4632-1.9989 1.3548-5.1167 4.5237-6.9284 7.042-1.8118 2.5183-3.2941 4.3423-3.2941 4.0533zm-47.592-4.0672c0-0.16828 1.1048-1.7149 2.4552-3.4368 1.3503-1.722 4.4948-4.787 6.9878-6.8111s6.3344-4.8096 8.5365-6.1899c2.2021-1.3803 4.1808-2.3286 4.397-2.1074 0.21622 0.22124-1.7555 1.5634-4.3816 2.9826-2.944 1.591-7.3091 5.1278-11.385 9.2245-3.6355 3.6542-6.6101 6.5064-6.6101 6.3381zm79.887-5.3652c0.51936-0.21445 1.3692-0.21445 1.8886 0 0.51936 0.21443 0.09443 0.38988-0.9443 0.38988-1.0387 0-1.4637-0.17545-0.9443-0.38988zm5.2881-0.80658c0.93485-0.18426 2.4646-0.18426 3.3995 0 0.93484 0.18423 0.16997 0.33498-1.6997 0.33498s-2.6346-0.15075-1.6997-0.33498zm-18.697-1.3172c1.4542-0.6114 4.1738-1.127 6.0435-1.1458 3.1484-0.0317 3.2912 0.0496 1.9331 1.1007-0.80652 0.6242-1.8264 1.1296-2.2663 1.1231-0.43995-6e-3 -0.28999-0.38207 0.33325-0.83457 0.849-0.61642 0.37539-0.72047-1.8886-0.41495-1.662 0.22428-3.8716 0.60476-4.9103 0.8455-1.0573 0.24505-0.72474-0.0516 0.75544-0.67389zm31.033 0.1235c-0.0541-1.2268 0.92489-1.3527 10.516-1.3527h10.576v-8.8894c0-7.3864 0.1916-8.8894 1.1332-8.8894 0.94652 0 1.1332 1.5839 1.1332 9.6168 0 5.2892-0.25497 9.779-0.56658 9.9771-0.31162 0.19814-0.54634-3.8686-0.52161-9.0371l0.0449-9.3973-0.25781 8.6962-0.25781 8.6962h-10.489c-7.6845 0-10.591 0.25836-10.87 0.96624-0.22762 0.57723-0.40503 0.42163-0.44066-0.38649zm34.487-0.3865c-0.20906-0.744-0.61214-2.0484-0.89572-2.8987-0.36533-1.0954-0.19961-1.005 0.56865 0.31027 0.7993 1.3684 1.1944 1.5716 1.5034 0.773 0.28603-0.73925 0.4381-0.77643 0.47879-0.11702 0.0465 0.75369 5.9587 0.96624 26.878 0.96624h26.818v-15.009c0-11.284-0.23437-15.106-0.94429-15.399-0.56412-0.23291-0.41205-0.41446 0.37771-0.45091 1.2181-0.0562 1.322 1.1865 1.322 15.804v15.865l-27.582-0.21195c-21.823-0.16769-27.506-0.0104-27.219 0.7543 0.19949 0.53143 0.0731 0.96624-0.2809 0.96624s-0.81469-0.60873-1.0238-1.3527zm-103.29-2.8949c0-0.20248 2.0741-1.4395 4.6091-2.7489 2.535-1.3094 4.7337-2.2532 4.8861-2.0973 0.15236 0.15589-1.9217 1.3929-4.6091 2.7489-2.6873 1.356-4.8861 2.2998-4.8861 2.0973zm37.772-1.1143c0.62324-0.37229 3.1503-1.0574 5.6157-1.5225 2.4654-0.46509 7.3946-0.79289 10.954-0.72845 6.4103 0.11606 6.3858 0.12285-2.5939 0.71888-4.9859 0.33094-10.253 0.9739-11.704 1.4288-1.4515 0.45491-2.8113 0.81653-3.0217 0.80361-0.21049-0.0129 0.12721-0.3281 0.75045-0.70037zm32.751-0.62887c0.20277-0.74401 0.61415-2.218 0.91418-3.2756 0.30003-1.0576 1.6018-3.0842 2.8928-4.5036 1.291-1.4195 3.7071-3.401 5.3691-4.4034 1.662-1.0024 4.0416-1.9325 5.2881-2.0668l2.2663-0.24424 0.21528 7.9232 0.21529 7.9232h-8.7648c-7.9843 0-8.732-0.12047-8.3962-1.3527zm35.39-1.2144c-0.49896-1.4119-0.9072-3.1512-0.9072-3.865 0-0.91316 0.64157-1.2978 2.1644-1.2978 1.1904 0 3.0149-0.68456 4.0544-1.5212s3.2676-3.8939 4.9512-6.7938c1.6837-2.8999 3.9385-7.3025 5.0108-9.7834s1.9496-5.36 1.9496-6.3979c0-1.0379-0.34504-2.5468-0.76675-3.3531-0.42173-0.80631-2.2662-2.5216-4.0987-3.8118s-5.9918-3.6986-9.2428-5.3522c-3.2509-1.6535-9.2293-4.0896-13.285-5.4134-4.056-1.3238-7.8804-2.4069-8.4987-2.4069s-1.1241-0.34785-1.1241-0.77299 0.33995-0.77299 0.75544-0.77299 0.75544-0.34785 0.75544-0.773c0-0.42514-0.39818-0.77299-0.88482-0.77299s-1.4691-0.54108-2.1833-1.2024c-0.71414-0.66132-3.2905-6.1399-5.7252-12.175l-4.4268-10.972-0.21277 9.553c-0.21072 9.4611-0.22887 9.5481-1.8886 9.0429-0.9217-0.28053-4.7353-1.1871-8.4748-2.0147-3.7394-0.82755-10.793-1.7327-15.675-2.0115l-8.8764-0.50684v-41.504h-13.598v-23.19h53.398l2.8238 6.1573c1.5531 3.3865 2.574 6.5709 2.2687 7.0764-0.33815 0.55986-0.23297 0.71534 0.26914 0.39781 0.5171-0.32702 4.6246 7.4057 11.023 20.751 5.6093 11.7 10.39 21.273 10.624 21.273s0.42533-7.3048 0.42533-16.233v-16.233h-13.598v-23.19h63.457v23.125l-11.709 0.45153v81.165l11.709 0.45153v25.444h-49.555zm-42.267 0.45802c1.7354-0.18574 2.8329-0.70936 2.8329-1.3516 0-0.57662-0.42494-1.2239-0.9443-1.4383-0.56411-0.23291-0.41205-0.41446 0.37772-0.45091 0.92242-0.0426 1.322 0.52307 1.322 1.8715 0 1.7786-0.25573 1.9221-3.2106 1.8026l-3.2106-0.12995zm38.137-0.30581c0.51245-0.52828 1.122-0.76579 1.3546-0.52779 0.23259 0.23801-0.18667 0.67024-0.9317 0.96051-1.0766 0.4195-1.1634 0.33071-0.4229-0.43272zm-90.451-2.8886c0.62323-0.40664 3.2219-1.2929 5.7748-1.9694 2.5529-0.67654 5.2725-1.2044 6.0435-1.1732s-0.9778 0.6658-3.8862 1.41-6.1379 1.6049-7.1766 1.9125c-1.3293 0.39372-1.553 0.34043-0.75544-0.17998zm51.228-0.63552c0.54532-0.2233 1.1969-0.19584 1.4479 0.061 0.25102 0.25686-0.19515 0.43956-0.9915 0.40599-0.88005-0.0371-1.059-0.22026-0.45641-0.46701zm-3.8244-0.75689c0.51936-0.21444 1.3692-0.21444 1.8886 0 0.51936 0.21443 0.0944 0.38989-0.9443 0.38989-1.0387 0-1.4637-0.17546-0.9443-0.38989zm-7.3655-1.034c-2.549-0.54902-2.5626-0.56986-0.37772-0.57978 1.2465-5e-3 3.2861 0.25523 4.5326 0.57978 2.0109 0.52359 2.0535 0.58891 0.37772 0.57977-1.0387-5e-3 -3.0784-0.26656-4.5326-0.57977zm48.348-1.1595c0-1.0629 0.13034-1.9325 0.28965-1.9325s0.45211 0.86962 0.65068 1.9325c0.19857 1.0629 0.0682 1.9325-0.28965 1.9325-0.35787 0-0.65068-0.86962-0.65068-1.9325zm-101.61-0.78669c2.0774-0.99953 4.797-2.0327 6.0435-2.2959 1.2465-0.2632-0.28329 0.58232-3.3995 1.8789-3.1162 1.2966-5.8357 2.3297-6.0435 2.2959-0.20774-0.0339 1.322-0.87939 3.3995-1.8789zm28.149 0.62647c0.9397-0.18489 2.2995-0.17788 3.0217 0.0156 0.72226 0.19347-0.04658 0.34476-1.7085 0.33618-1.662-8e-3 -2.2529-0.16688-1.3132-0.35177zm17.003 0.0111c0.73502-0.19599 1.7549-0.18311 2.2663 0.0287 0.51145 0.21175-0.08992 0.3721-1.3364 0.35635-1.2465-0.0157-1.6649-0.189-0.92992-0.38499zm59.219-1.7833c0.73631-1.2754 1.6156-2.319 1.9539-2.319s-0.13883 1.0436-1.0604 2.319c-0.92156 1.2754-1.8008 2.319-1.9539 2.319s0.32407-1.0435 1.0604-2.319zm-37.514-1.1595c-1.4542-0.57303-2.1341-1.0419-1.5109-1.0419 0.62324 0 2.323 0.46884 3.7772 1.0419 1.4542 0.57303 2.1341 1.0419 1.5109 1.0419-0.62323 0-2.323-0.46885-3.7772-1.0419zm6.6114-8e-3c0.44167-0.85505 1.4294-2.1148 2.195-2.7994s2.2418-1.6844 3.2806-2.2218c1.0387-0.53737 1.7186-0.81529 1.5109-0.6176-0.20774 0.1977-2.0454 1.8971-4.0836 3.7764-2.0382 1.8794-3.3445 2.7174-2.9029 1.8624zm35.315-0.12797c0.83097-0.18908 2.4905-1.4532 3.6879-2.8091 1.1974-1.3559 1.9117-1.9435 1.5874-1.3058-0.32433 0.63772-1.2783 1.9422-2.1199 2.8987-0.84159 0.95659-2.2358 1.6989-3.0982 1.6496-1.5148-0.0866-1.5167-0.10132-0.0572-0.43345zm-8.6875-2.1824c-0.5559-1.0629-1.2932-1.9325-1.6385-1.9325s-0.61704-0.43481-0.60391-0.96625c0.0131-0.53143 0.86299 9e-3 1.8886 1.2026 1.0256 1.1929 1.8647 2.4973 1.8647 2.8987s-0.11253 0.7299-0.25007 0.7299c-0.13753 0-0.70489-0.86962-1.2608-1.9325zm-88.008 0.3865c0.83098-0.36539 2.1908-0.6541 3.0217-0.6416 1.2146 0.0182 1.1405 0.14408-0.37772 0.6416-1.0387 0.34039-2.3985 0.62912-3.0217 0.64161-0.69423 0.014-0.54792-0.2346 0.37772-0.64161zm50.095 0.24496c0.54533-0.22329 1.1969-0.19584 1.4479 0.061 0.25102 0.25686-0.19516 0.43956-0.99152 0.40599-0.88004-0.0371-1.059-0.22026-0.45641-0.46701zm-8.9236-1.432c-3.4112-0.67046-4.1031-0.96792-2.2663-0.97434 1.4542-5e-3 4.3438 0.43784 6.4212 0.98423 2.0774 0.54641 3.0973 0.98486 2.2663 0.97435-0.83098-0.0105-3.7205-0.45343-6.4212-0.98424zm-34.372-0.35898c1.2465-0.32454 3.2861-0.59123 4.5326-0.59265 1.9055-2e-3 1.7852 0.0992-0.75544 0.637-1.662 0.35175-3.7016 0.61844-4.5326 0.59265-0.93931-0.0292-0.65353-0.27014 0.75544-0.637zm12.688-1.3482c3.239-0.14525 8.3382-0.14437 11.332 2e-3 2.9933 0.14633 0.34319 0.26516-5.8892 0.26409-6.2324-7.8e-4 -8.6814-0.12082-5.4424-0.26607zm64.477-1.5021c-0.2856-0.29225-2.9768-0.78503-5.9805-1.0951l-5.4613-0.56373 5.463 0.15329c3.0905 0.0867 5.8628 0.5623 6.3834 1.0951 0.50621 0.51797 0.73908 0.94177 0.51749 0.94177-0.22161 0-0.63657-0.2391-0.92219-0.53134zm19.909-2.5606c0.84787-1.7006 1.7116-3.092 1.9193-3.092 0.20775 0-0.31598 1.3914-1.1639 3.092-0.84786 1.7006-1.7116 3.092-1.9193 3.092-0.20775 0 0.31598-1.3914 1.1639-3.092zm2.298-3.9738c-0.0175-0.27243 0.64076-2.0117 1.4626-3.865 0.82185-1.8533 1.4875-2.8479 1.4792-2.2101-9e-3 0.63771-0.66647 2.377-1.4626 3.865-0.79615 1.488-1.4618 2.4826-1.4792 2.2102zm33.396-3.5368c1.1426-0.17711 3.0123-0.17711 4.1549 0 1.1426 0.17712 0.20775 0.32203-2.0774 0.32203-2.2852 0-3.22-0.14491-2.0775-0.32203zm-31.661-5.8743c-0.89785-0.96982-4.8655-3.4841-8.8169-5.5873-3.9515-2.1032-7.0751-3.9359-6.9413-4.0728 0.13373-0.13685 2.0617 0.68346 4.2843 1.8229 2.2226 1.1394 5.9607 3.2533 8.3069 4.6974s4.4602 3.1441 4.6978 3.7777c0.23762 0.63362 0.35771 1.146 0.26688 1.1387-0.0908-7e-3 -0.89976-0.80685-1.7976-1.7767zm-107.34-8.8224c1.5581-0.16678 4.1077-0.16678 5.6658 0 1.5581 0.16677 0.28329 0.30321-2.8329 0.30321-3.1162 0-4.391-0.13644-2.8329-0.30321zm-6.2324-0.98289c-0.62324-0.41214-0.79321-0.7302-0.37772-0.70683 0.41549 0.0234 1.4353 0.34144 2.2663 0.70683 0.99622 0.43803 1.1249 0.67881 0.37772 0.70683-0.62324 0.0233-1.6431-0.2947-2.2663-0.70683zm92.919-1.1595c-1.4542-0.57302-2.1341-1.0526-1.5109-1.0658 0.62323-0.0131 2.153 0.45389 3.3995 1.0379 1.2465 0.58401 1.9264 1.0636 1.5109 1.0658-0.41548 2e-3 -1.9452-0.46487-3.3995-1.0379zm-98.396-1.2121c-1.5581-0.84167-2.8329-1.703-2.8329-1.914 0-0.21105 1.4448 0.36178 3.2106 1.273 1.7658 0.9112 3.3522 1.7879 3.5254 1.9482 0.17312 0.16031 0.0031 0.27611-0.37772 0.25731-0.38087-0.0188-1.9673-0.72279-3.5254-1.5644zm26.778-0.97699c1.5363-1.5156 3.3268-3.8111 3.9787-5.1012 0.65195-1.29 1.3958-3.9168 1.6531-5.8373l0.46773-3.4918 6.2158 0.25989-2.7428 0.29772c-2.555 0.27734-2.7763 0.51212-3.2322 3.4297-0.26919 1.7226-1.0294 4.2259-1.6894 5.563-0.65995 1.3371-1.925 3.2457-2.8113 4.2413-0.88625 0.99563-2.2913 2.1666-3.1222 2.6023s-0.25387-0.44801 1.2825-1.9636zm64.44-0.15892c-2.992-1.0592-2.9957-1.0654-0.37772-0.62487 1.4542 0.24466 3.154 0.7422 3.7772 1.1056 0.62324 0.36343 0.7932 0.64462 0.37772 0.62488-0.4155-0.0197-2.1152-0.51728-3.7772-1.1056zm-99.871-5.4531-4.379-4.3227 4.7215 4.1081c2.5968 2.2595 4.7215 4.2046 4.7215 4.3226s-0.15412 0.21453-0.3425 0.21453c-0.18837 0-2.313-1.9452-4.7215-4.3226zm15.461 2.3795c-1.5529-0.58367-4.2724-2.0897-6.0435-3.3468-1.7711-1.2571-4.209-3.3536-5.4175-4.659-1.6896-1.8248-1.9465-2.4718-1.1118-2.7996 0.59706-0.23445 7.8749-0.3239 16.173-0.19879l15.087 0.22747-31.614 0.35188 1.8314 2.0146c1.0073 1.108 3.3302 3.0759 5.1621 4.3731 1.8319 1.2972 5.2313 2.9808 7.5544 3.7413 2.323 0.76052 3.5438 1.377 2.7128 1.3699-0.83098-7e-3 -2.7814-0.49044-4.3342-1.0741zm12.261-0.0612c1.4512-0.64398 3.4885-1.9348 4.5272-2.8685l1.8886-1.6976-1.5037 1.8184c-0.82703 1.0001-2.4225 2.3045-3.5454 2.8987-1.1229 0.59419-2.4835 1.0667-3.0235 1.0501-0.54-0.0166 0.20557-0.55714 1.6568-1.2011zm62.565 0.70333c0.54532-0.22331 1.1969-0.19585 1.4479 0.061 0.25103 0.25685-0.19515 0.43954-0.9915 0.40598-0.88004-0.0371-1.059-0.22025-0.45641-0.46701zm-7.7904-1.3869c-2.0774-0.5464-3.0973-1.0014-2.2663-1.0111 0.83098-9e-3 3.2106 0.42943 5.2881 0.97584 2.0774 0.54641 3.0973 1.0014 2.2663 1.0111-0.83098 9e-3 -3.2106-0.42944-5.288-0.97585zm-101.61-1.1771c0-0.42514 0.36001-0.77299 0.80002-0.77299 0.44001 0 0.58992 0.34785 0.33314 0.77299-0.25679 0.42516-0.6168 0.77301-0.80002 0.77301-0.18322 0-0.33314-0.34785-0.33314-0.77301zm95.185-0.77299c0-0.42514 0.31988-0.77299 0.71085-0.77299s0.92095 0.34785 1.1777 0.77299c0.25679 0.42514-0.0631 0.77299-0.71085 0.77299-0.64776 0-1.1777-0.34785-1.1777-0.77299zm-87.253-2.2149c0.83098-0.3721 2.7007-0.8973 4.1549-1.1671 1.8151-0.33679 2.1704-0.27849 1.1332 0.18593-0.83098 0.37208-2.7007 0.89729-4.1549 1.1671-1.8151 0.33679-2.1704 0.27849-1.1332-0.18593zm94.052-0.0247c1.7052-0.48705 1.538-0.64006-1.7214-1.5756-1.9855-0.56989-3.4601-1.1895-3.277-1.3769 0.18316-0.18741 2.2603 0.28091 4.6159 1.0407 3.2495 1.0481 3.949 1.516 2.8993 1.9391-0.76099 0.30671-2.0635 0.54742-2.8945 0.53492-1.1731-0.01762-1.0887-0.14331 0.37771-0.56217zm-49.044-1.3037c0.03625-0.9005 0.21526-1.0837 0.45641-0.46702 0.21822 0.558 0.19138 1.2247-0.05964 1.4816-0.25102 0.25686-0.42957-0.19969-0.39677-1.0146zm0.75544-3.092c0.03624-0.9005 0.21526-1.0837 0.45641-0.46703 0.21822 0.55801 0.19138 1.2247-0.05964 1.4816-0.25102 0.25686-0.42957-0.19969-0.39677-1.0146zm34.69 0.0083-4.9103-1.0268 4.2668 0.394c2.3467 0.2167 5.2363 0.69135 6.4212 1.0548 1.3791 0.42296 1.6107 0.65073 0.64358 0.63285-0.83098-0.01532-3.7205-0.49001-6.4212-1.0548zm17.942 0.38072c-0.9714-0.57895-1.3132-1.7515-1.2886-4.4212l0.0334-3.6333 1.3816 2.7055c0.75984 1.488 1.6176 3.4881 1.9061 4.4447 0.28852 0.95658 0.24671 1.7287-0.0929 1.7157-0.33962-0.01292-1.2124-0.37807-1.9395-0.8114zm0.72972-2.4503c-0.82968-2.3382-0.91003-2.3844-1.16-0.66717-0.14769 1.0148 0.18615 2.14 0.74187 2.5004 0.5557 0.36043 1.0777 0.66065 1.1599 0.66717 0.0823 0.0063-0.25157-1.1187-0.74185-2.5004zm-33.23 0.40834c1.3411-0.17076 3.7207-0.17357 5.2881-0.0063 1.5674 0.16734 0.47011 0.30705-2.4383 0.31048-2.9084 0.0031-4.1908-0.13348-2.8497-0.30424zm55.127-30.015c-1.5381-3.1807-2.7795-6.0382-2.7588-6.35 0.0208-0.31183 1.4023 2.1646 3.07 5.5032 1.6677 3.3386 2.9091 6.1961 2.7588 6.35-0.15039 0.1539-1.5319-2.3226-3.07-5.5032zm0.73443-2.4596c-0.19284-0.3258 0.12362-1.0409 0.70323-1.5891 0.86561-0.81866 1.0539-0.79229 1.0539 0.14763 0 0.62939-0.31646 1.3445-0.70323 1.5891-0.38679 0.2446-0.86102 0.17817-1.0539-0.14763zm-1.5938-3.0713c-0.40995-1.1017-0.32319-1.1905 0.4229-0.43272 0.51628 0.52435 0.74839 1.1481 0.5158 1.3861-0.23259 0.238-0.65501-0.19102-0.9387-0.95336zm-3.4827-3.3848c-0.46376-0.88671-0.70092-1.7578-0.527-1.9358 0.17391-0.17796 0.70409 0.54753 1.1782 1.6122 0.47408 1.0647 0.71123 1.9358 0.52701 1.9358-0.18421 0-0.71439-0.72549-1.1782-1.6122zm1.7188-0.2399c-0.45519-1.0222-0.62373-2.0673-0.37453-2.3223 0.2492-0.25499 1.3799-0.46362 2.5127-0.46362 1.2662 0 2.2535 0.52113 2.5629 1.3527 0.40354 1.0846 0.31476 1.1612-0.44798 0.3865-0.52321-0.53143-1.7451-0.96624-2.7154-0.96624-1.5541 0-1.6637 0.19187-0.92086 1.6122 0.46377 0.88671 0.70092 1.7578 0.52701 1.9358-0.17392 0.17796-0.68864-0.51282-1.1438-1.5351zm-70.051-2.0129-6.7989-0.48085 6.9878-0.14607c4.2501-0.08884 6.9878 0.15678 6.9878 0.62692 0 0.42515-0.08499 0.70726-0.18886 0.62692-0.10388-0.08034-3.2484-0.36246-6.9878-0.62692zm124.86-0.567c1.7768-0.16329 4.4964-0.161 6.0435 0.0051 1.5471 0.1661 0.0933 0.2997-3.2306 0.29689-3.3239-0.0028-4.5897-0.13871-2.8129-0.302zm-58-1.1667c0-0.32192 2.1247-0.54497 4.7215-0.49565 2.5968 0.04932 4.2116 0.20627 3.5883 0.34878-0.62323 0.14251-2.7479 0.36555-4.7215 0.49565s-3.5883-0.02685-3.5883-0.34878zm-71.766-14.508v-14.696l29.21 0.20233c22.943 0.15891 29.252 0.41379 29.405 1.1879 0.10719 0.54206 0.0222 0.62903-0.18904 0.19325-0.25215-0.52026-10.22-0.79232-29.028-0.79232h-28.644v27.768l13.22 0.51528-13.976 0.31791zm130.12 14.121 5.8546-0.26345v-27.763h-67.989v9.2303c0 5.0767-0.3013 9.4209-0.66955 9.6538s-0.84647-0.26884-1.0627-1.1149c-0.21622-0.8461-0.0849-1.3434 0.29184-1.1052 0.39459 0.24954 0.68498-3.3547 0.68498-8.5019v-8.9351h69.5v29.374l-12.465-0.31112zm-67.642-18.391c-1.5347-3.1736-2.6313-5.7703-2.4368-5.7703 0.19441 0 1.0265 1.3044 1.849 2.8987 0.82256 1.5943 1.5106 2.3974 1.5289 1.7847 0.0241-0.8065 0.33953-0.69982 1.1425 0.3865 1.0065 1.3616 1.125 0.89236 1.2811-5.07l0.17199-6.5705 0.26821 5.3948c0.14752 2.9671 0.071 6.199-0.1701 7.1818-0.24108 0.98286-0.76831 1.5783-1.1716 1.3233-0.4033-0.25505-0.73329-0.24641-0.73329 0.0192 0 0.26562 0.36749 1.1856 0.81664 2.0443 0.44915 0.85876 0.68775 1.6933 0.53022 1.8545-0.15754 0.1612-1.5421-2.3035-3.0768-5.4772zm-1.7006-6.5947c-0.27387-0.45343-0.33592-0.99021-0.1379-1.1928s0.56133 0.16837 0.80737 0.82442c0.24603 0.65606 0.30808 1.1928 0.1379 1.1928s-0.53349-0.37099-0.80737-0.82442z" fill="#204924"/>
 </g>
</svg>
